<svg width="32" height="32" viewBox="0 0 32 32" fill="none" xmlns="http://www.w3.org/2000/svg">
<rect width="32" height="32" fill="white"/>
<rect width="32" height="30" rx="15" fill="#683281"/>
<path d="M17.2832 12.5977C17.2832 12.9336 17.2207 13.248 17.0957 13.541C16.9707 13.8301 16.7988 14.084 16.5801 14.3027C16.3652 14.5176 16.1113 14.6875 15.8184 14.8125C15.5293 14.9375 15.2188 15 14.8867 15H7.58594V13.7988H14.8867C15.0547 13.7988 15.2109 13.7676 15.3555 13.7051C15.5 13.6426 15.625 13.5566 15.7305 13.4473C15.8398 13.3379 15.9258 13.2109 15.9883 13.0664C16.0508 12.918 16.082 12.7617 16.082 12.5977C16.082 12.4336 16.0508 12.2793 15.9883 12.1348C15.9258 11.9902 15.8398 11.8633 15.7305 11.7539C15.625 11.6445 15.5 11.5586 15.3555 11.4961C15.2109 11.4336 15.0547 11.4023 14.8867 11.4023H9.98828C9.66016 11.4023 9.34961 11.3398 9.05664 11.2148C8.76367 11.0898 8.50781 10.9199 8.28906 10.7051C8.07422 10.4863 7.90234 10.2305 7.77344 9.9375C7.64844 9.64453 7.58594 9.33203 7.58594 9C7.58594 8.67188 7.64844 8.36133 7.77344 8.06836C7.90234 7.77539 8.07422 7.52148 8.28906 7.30664C8.50781 7.08789 8.76367 6.91602 9.05664 6.79102C9.34961 6.66211 9.66016 6.59766 9.98828 6.59766H16.6855V7.79883H9.98828C9.82422 7.79883 9.66797 7.83008 9.51953 7.89258C9.375 7.95508 9.24805 8.04102 9.13867 8.15039C9.0293 8.25977 8.94336 8.38867 8.88086 8.53711C8.81836 8.68164 8.78711 8.83594 8.78711 9C8.78711 9.16406 8.81836 9.32031 8.88086 9.46875C8.94336 9.61328 9.0293 9.74023 9.13867 9.84961C9.24805 9.95898 9.375 10.0449 9.51953 10.1074C9.66797 10.1699 9.82422 10.2012 9.98828 10.2012H14.8867C15.2188 10.2012 15.5293 10.2656 15.8184 10.3945C16.1113 10.5195 16.3652 10.6914 16.5801 10.9102C16.7988 11.125 16.9707 11.3789 17.0957 11.6719C17.2207 11.9609 17.2832 12.2695 17.2832 12.5977Z" fill="white"/>
<path d="M25.3945 17.5977C25.3945 17.9336 25.3145 18.248 25.1543 18.541C24.998 18.8301 24.7832 19.084 24.5098 19.3027C24.2402 19.5176 23.9238 19.6875 23.5605 19.8125C23.1973 19.9375 22.8086 20 22.3945 20H15.6855V18.7988H22.3945C22.6406 18.7988 22.873 18.7676 23.0918 18.7051C23.3105 18.6426 23.5 18.5566 23.6602 18.4473C23.8242 18.3379 23.9531 18.2109 24.0469 18.0664C24.1445 17.918 24.1934 17.7617 24.1934 17.5977V17H18.6855C18.2715 17 17.8809 16.9219 17.5137 16.7656C17.1504 16.6094 16.832 16.3965 16.5586 16.127C16.2891 15.8535 16.0762 15.5352 15.9199 15.1719C15.7637 14.8047 15.6855 14.4141 15.6855 14V11.5977H16.8867V14C16.8867 14.25 16.9336 14.4844 17.0273 14.7031C17.1211 14.9219 17.248 15.1133 17.4082 15.2773C17.5723 15.4375 17.7637 15.5645 17.9824 15.6582C18.2012 15.752 18.4355 15.7988 18.6855 15.7988H24.1934V11.5977H25.3945V17.5977Z" fill="white"/>
</svg>
